<svg xmlns="http://www.w3.org/2000/svg" xmlns:xlink="http://www.w3.org/1999/xlink" version="1.1" x="0px" y="0px" viewBox="0 0 48.001 60" enable-background="new 0 0 48.001 48" xml:space="preserve"><polygon points="41.0005,44.5049 41.0005,48 48.0005,48 48.0005,44.5049 48.001,44.5 48.0005,44.4951 48.0005,41 41.0005,41   41.0005,44.4951 41,44.5 "/><circle cx="24" cy="44.5" r="3.5"/><circle cx="3.5" cy="44.5" r="3.5"/><circle cx="44.5" cy="24" r="3.5"/><polygon points="20.5005,24.0049 20.5005,27.5 27.5005,27.5 27.5005,24.0049 27.501,24 27.5005,23.9951 27.5005,20.5 20.5005,20.5   20.5005,23.9951 20.5,24 "/><circle cx="3.5" cy="24" r="3.5"/><circle cx="44.5" cy="3.5" r="3.5"/><circle cx="24" cy="3.5" r="3.5"/><polygon points="0.0005,0 0.0005,3.4951 0,3.5 0.0005,3.5049 0.0005,7 7.0005,7 7.0005,3.5049 7.001,3.5 7.0005,3.4951 7.0005,0 "/><text x="0" y="63" fill="#000000" font-size="5px" font-weight="bold" font-family="'Helvetica Neue', Helvetica, Arial-Unicode, Arial, Sans-serif">Created by Michele Ficeli</text><text x="0" y="68" fill="#000000" font-size="5px" font-weight="bold" font-family="'Helvetica Neue', Helvetica, Arial-Unicode, Arial, Sans-serif">from the Noun Project</text></svg>