<svg xmlns:dc="http://purl.org/dc/elements/1.1/" xmlns:cc="http://creativecommons.org/ns#" xmlns:rdf="http://www.w3.org/1999/02/22-rdf-syntax-ns#" xmlns:svg="http://www.w3.org/2000/svg" xmlns="http://www.w3.org/2000/svg" xmlns:sodipodi="http://sodipodi.sourceforge.net/DTD/sodipodi-0.dtd" xmlns:inkscape="http://www.inkscape.org/namespaces/inkscape" version="1.1" x="0px" y="0px" viewBox="0 0 100 125"><g transform="translate(0,-952.36218)"><path style="font-size:medium;font-style:normal;font-variant:normal;font-weight:normal;font-stretch:normal;text-indent:0;text-align:start;text-decoration:none;line-height:normal;letter-spacing:normal;word-spacing:normal;text-transform:none;direction:ltr;block-progression:tb;writing-mode:lr-tb;text-anchor:start;baseline-shift:baseline;opacity:1;color:#000000;fill:#000000;fill-opacity:1;stroke:none;stroke-width:1.99999869000000000;marker:none;visibility:visible;display:inline;overflow:visible;enable-background:accumulate;font-family:Sans;-inkscape-font-specification:Sans" d="M 29 18 L 29 20 L 31 20 L 31 23 L 19 23 L 18 23 L 18 24 L 18 68 L 18 69 L 19 69 L 58.6875 69 C 59.544135 73.039056 61.256689 76.760241 64.15625 81.5 L 64.4375 82 L 65 82 L 75 82 L 75.5625 82 L 75.84375 81.5 C 80.302878 74.2111 82 69.3148 82 62 L 82 61.96875 C 81.94118 58.66125 80.871599 56.0416 79.875 53.8125 C 78.878401 51.5834 78 49.7619 78 48 C 78 46.45107 78.230966 45.24947 80.53125 43.84375 L 81 43.5625 L 81 43 L 81 37 L 81 36 L 80 36 L 74 36 L 74 24 L 74 23 L 73 23 L 61 23 L 61 20 L 63 20 L 63 18 L 57 18 L 57 20 L 59 20 L 59 23 L 33 23 L 33 20 L 35 20 L 35 18 L 29 18 z M 20 25 L 72 25 L 72 36 L 69 36 L 69 29 L 69 28 L 68 28 L 24 28 L 23 28 L 23 29 L 23 63 L 23 64 L 24 64 L 58.0625 64 C 58.111705 65.032781 58.210495 66.03913 58.34375 67 L 20 67 L 20 25 z M 25 30 L 67 30 L 67 36 L 60 36 L 59 36 L 59 37 L 59 43 L 59 43.5625 L 59.46875 43.84375 C 61.76903 45.24947 62 46.45121 62 48 C 62 49.7619 61.121598 51.5834 60.125 53.8125 C 59.128402 56.0416 58.058818 58.66125 58 61.96875 L 58 62 L 25 62 L 25 30 z M 61 38 L 79 38 L 79 42.5 C 76.679397 44.14413 76 46.22405 76 48 C 76 50.3869 77.055432 52.4424 78.03125 54.625 C 79.007068 56.8076 79.948487 59.1034 80 62 C 80 68.8543 78.542739 73.1494 74.40625 80 L 65.59375 80 C 61.457261 73.1494 60 68.8543 60 62 C 60.05151 59.1034 60.992931 56.8076 61.96875 54.625 C 62.944569 52.4424 64 50.387 64 48 C 64 46.22416 63.320606 44.14414 61 42.5 L 61 38 z " transform="translate(0,952.36218)"/></g><text x="0" y="115" fill="#000000" font-size="5px" font-weight="bold" font-family="'Helvetica Neue', Helvetica, Arial-Unicode, Arial, Sans-serif">Created by throwaway icons</text><text x="0" y="120" fill="#000000" font-size="5px" font-weight="bold" font-family="'Helvetica Neue', Helvetica, Arial-Unicode, Arial, Sans-serif">from the Noun Project</text></svg>