<svg xmlns="http://www.w3.org/2000/svg" data-name="Layer 1" viewBox="0 0 100 125" x="0px" y="0px"><title>108all</title><path d="M60.56,9A19,19,0,0,0,39.44,9L14.87,25.46a1,1,0,0,0-.44.83V93.17a1,1,0,0,0,1,1H84.57a1,1,0,0,0,1-1V26.29a1,1,0,0,0-.44-.83ZM58.9,92.17H41.1V82.79a8.9,8.9,0,0,1,17.81,0Zm24.67,0H60.9V82.79a10.9,10.9,0,0,0-21.81,0v9.39H16.43V26.82L40.55,10.69a17,17,0,0,1,18.9,0L83.57,26.82Z"/><path d="M42.43,28.46H32.57a4,4,0,0,0-4,4v5.88a4,4,0,0,0,4,4h9.86a4,4,0,0,0,4-4V32.46A4,4,0,0,0,42.43,28.46Zm2,9.88a2,2,0,0,1-2,2H32.57a2,2,0,0,1-2-2V32.46a2,2,0,0,1,2-2h9.86a2,2,0,0,1,2,2Z"/><path d="M53.57,32.46v5.88a4,4,0,0,0,4,4h9.86a4,4,0,0,0,4-4V32.46a4,4,0,0,0-4-4H57.57A4,4,0,0,0,53.57,32.46Zm15.86,0v5.88a2,2,0,0,1-2,2H57.57a2,2,0,0,1-2-2V32.46a2,2,0,0,1,2-2h9.86A2,2,0,0,1,69.43,32.46Z"/><path d="M42.43,50.46H32.57a4,4,0,0,0-4,4v5.88a4,4,0,0,0,4,4h9.86a4,4,0,0,0,4-4V54.46A4,4,0,0,0,42.43,50.46Zm2,9.88a2,2,0,0,1-2,2H32.57a2,2,0,0,1-2-2V54.46a2,2,0,0,1,2-2h9.86a2,2,0,0,1,2,2Z"/><path d="M67.43,50.46H57.57a4,4,0,0,0-4,4v5.88a4,4,0,0,0,4,4h9.86a4,4,0,0,0,4-4V54.46A4,4,0,0,0,67.43,50.46Zm2,9.88a2,2,0,0,1-2,2H57.57a2,2,0,0,1-2-2V54.46a2,2,0,0,1,2-2h9.86a2,2,0,0,1,2,2Z"/><text x="0" y="115" fill="#000000" font-size="5px" font-weight="bold" font-family="'Helvetica Neue', Helvetica, Arial-Unicode, Arial, Sans-serif">Created by Delta</text><text x="0" y="120" fill="#000000" font-size="5px" font-weight="bold" font-family="'Helvetica Neue', Helvetica, Arial-Unicode, Arial, Sans-serif">from the Noun Project</text></svg>