<svg xmlns="http://www.w3.org/2000/svg" xmlns:xlink="http://www.w3.org/1999/xlink" version="1.1" x="0px" y="0px" viewBox="0 0 100 125" style="enable-background:new 0 0 100 100;" xml:space="preserve"><g><path d="M83.5,50c0-18.74756-15.25195-34-34-34c-18.74756,0-34,15.25244-34,34c0,18.74805,15.25244,34,34,34h34v-2H60.9826   C74.0965,77.28003,83.5,64.7196,83.5,50z M17.5,50c0-17.64502,14.35498-32,32-32c17.64453,0,32,14.35498,32,32   c0,17.64453-14.35547,32-32,32C31.85498,82,17.5,67.64453,17.5,50z"/><path d="M53.5,50c0-2.20557-1.79395-4-4-4c-2.20557,0-4,1.79443-4,4c0,2.20605,1.79443,4,4,4C51.70605,54,53.5,52.20605,53.5,50z    M47.5,50c0-1.10303,0.89697-2,2-2s2,0.89697,2,2c0,1.10254-0.89697,2-2,2S47.5,51.10254,47.5,50z"/><path d="M49.5,24c-4.41113,0-8,3.58887-8,8s3.58887,8,8,8s8-3.58887,8-8S53.91113,24,49.5,24z M49.5,38c-3.30859,0-6-2.69141-6-6   s2.69141-6,6-6s6,2.69141,6,6S52.80859,38,49.5,38z"/><path d="M49.5,60c-4.41113,0-8,3.58887-8,8s3.58887,8,8,8s8-3.58887,8-8S53.91113,60,49.5,60z M49.5,74c-3.30859,0-6-2.69141-6-6   s2.69141-6,6-6s6,2.69141,6,6S52.80859,74,49.5,74z"/><path d="M75.5,50c0-4.41113-3.58887-8-8-8s-8,3.58887-8,8s3.58887,8,8,8S75.5,54.41113,75.5,50z M67.5,56c-3.30859,0-6-2.69141-6-6   s2.69141-6,6-6s6,2.69141,6,6S70.80859,56,67.5,56z"/><path d="M31.5,42c-4.41113,0-8,3.58887-8,8s3.58887,8,8,8s8-3.58887,8-8S35.91113,42,31.5,42z M31.5,56c-3.30859,0-6-2.69141-6-6   s2.69141-6,6-6s6,2.69141,6,6S34.80859,56,31.5,56z"/></g><text x="0" y="115" fill="#000000" font-size="5px" font-weight="bold" font-family="'Helvetica Neue', Helvetica, Arial-Unicode, Arial, Sans-serif">Created by Evgeny Filatov</text><text x="0" y="120" fill="#000000" font-size="5px" font-weight="bold" font-family="'Helvetica Neue', Helvetica, Arial-Unicode, Arial, Sans-serif">from the Noun Project</text></svg>