<svg xmlns="http://www.w3.org/2000/svg" xmlns:xlink="http://www.w3.org/1999/xlink" version="1.1" x="0px" y="0px" viewBox="0 0 68 85" enable-background="new 0 0 68 68" xml:space="preserve"><g><path d="M60.5,1.3C60,0.9,59.3,0.9,59,1.4c-0.6,0.8-1.2,1.6-1.8,2.4l-1.9-1.9c-0.4-0.4-1-0.4-1.4,0c-0.4,0.4-0.4,1,0,1.4l2,2   c-0.6,0.7-1.2,1.3-1.9,2l-2.1-2.1c-0.4-0.4-1-0.4-1.4,0c-0.4,0.4-0.4,1,0,1.4l2,2c-0.6,0.6-1.2,1.1-1.9,1.7c-1.1,1-1.8,2.3-1.8,3.8   L34,29l-0.6-0.6c-4-4-10.7-2.6-13.4,4.5c-0.6,1.7-2.3,2.9-4.1,3c-4.2,0.4-8.2,2.1-11,4.9c-5.7,5.7-5.1,14.5,1.4,21   c6.1,6.1,14.9,7.4,21,1.4c2.8-2.8,4.6-6.8,4.9-11c0.1-1.9,1.3-3.5,3-4.1c7.2-2.7,8.2-9.6,4.4-13.4L39,34l14.8-14.8c0,0,0,0,0.1,0   c1.4,0,2.8-0.6,3.7-1.7c0.6-0.7,1.2-1.3,1.8-1.9l2,2c0.4,0.4,1,0.4,1.4,0c0.4-0.4,0.4-1,0-1.4l-2-2c0.7-0.7,1.3-1.3,2-1.9l1.9,1.9   c0.4,0.4,1,0.4,1.4,0c0.4-0.4,0.4-1,0-1.4l-1.8-1.8c0.8-0.7,1.6-1.3,2.3-1.9C66.8,8.8,67,8.6,67,8.3c0-0.3-0.1-0.6-0.3-0.8   L60.5,1.3z M56,16.2c-0.6,0.7-1.6,1.1-2.6,1c-0.3,0-0.6,0.1-0.8,0.3L36.9,33.3c-0.2,0.2-0.3,0.4-0.3,0.7c0,0.3,0.1,0.5,0.3,0.7   l1.3,1.3c2.8,2.8,2.2,7.9-3.7,10.2c-2.4,0.9-4.1,3.2-4.3,5.8c-0.3,3.8-1.9,7.3-4.3,9.7c-5.2,5.2-12.8,3.9-18.1-1.4   C2,54.7,1.5,47,6.3,42.2c2.4-2.4,6-4,9.7-4.3c2.6-0.2,4.9-1.9,5.8-4.3c2.2-5.7,7.1-6.7,10.1-3.8l1.4,1.4c0.4,0.4,1,0.4,1.4,0   l15.8-15.8c0.2-0.2,0.3-0.5,0.3-0.8c-0.1-1,0.3-1.9,1-2.6c3.3-2.8,5.9-5.6,8-8.4l4.6,4.6C61.4,10.6,58.6,13.3,56,16.2z"/><path d="M9.7,48.2c-0.4-0.4-1-0.4-1.4,0c-0.4,0.4-0.4,1,0,1.4l10.1,10.1c0.4,0.4,1,0.4,1.4,0s0.4-1,0-1.4L9.7,48.2z"/><path d="M13.8,44.1c-0.4-0.4-1-0.4-1.4,0c-0.4,0.4-0.4,1,0,1.4l10.1,10.1c0.4,0.4,1,0.4,1.4,0c0.4-0.4,0.4-1,0-1.4L13.8,44.1z"/><path d="M24.5,36.5c-1.9,1.9-1.9,5,0,6.9c1.9,1.9,5,1.9,6.9,0c1.9-1.9,1.9-5,0-6.9C29.6,34.6,26.5,34.6,24.5,36.5z M30,42   c-1.1,1.1-3,1.1-4.1,0c-1.1-1.1-1.1-3,0-4.1c1.1-1.1,3-1.1,4.1,0C31.2,39.1,31.2,40.9,30,42z"/></g><text x="0" y="83" fill="#000000" font-size="5px" font-weight="bold" font-family="'Helvetica Neue', Helvetica, Arial-Unicode, Arial, Sans-serif">Created by ProSymbols</text><text x="0" y="88" fill="#000000" font-size="5px" font-weight="bold" font-family="'Helvetica Neue', Helvetica, Arial-Unicode, Arial, Sans-serif">from the Noun Project</text></svg>