<svg xmlns="http://www.w3.org/2000/svg" xmlns:xlink="http://www.w3.org/1999/xlink" version="1.1" x="0px" y="0px" viewBox="0 0 100 125" style="enable-background:new 0 0 100 100;" xml:space="preserve"><g><path d="M88.2,44c-4.3,0.4-8.6,1.2-12.8-0.3c-2.9-1-5.7-2.7-8.4-0.3c-0.3,0.2-0.5,0.6-0.6,1.1c-4.6,1.7-8.4,5.5-9.8,10.7   c-2.2,8.3,2.7,16.9,11.1,19.1c8.3,2.2,16.9-2.7,19.1-11.1c1.1-4.2,0.4-8.6-1.7-12.1c1.2-0.8,2.2-1.8,2.9-2.7   c0.7-0.8,1.7-2.1,1.9-3.3C90.2,43.7,89.9,43.9,88.2,44z M84.8,62.7c-1.9,7.2-9.4,11.5-16.6,9.6c-7.2-1.9-11.5-9.4-9.6-16.6   c1.1-4.2,4.2-7.5,7.9-9c0.2,0.6,0.6,1.3,1.1,1.9c1.9,2.3,5.5,4.6,10.1,4.7c2,0.1,3.9-0.4,5.5-1.1C85.2,55.2,85.8,59,84.8,62.7z"/><path d="M74.7,64.9c-2.9-0.2-5.7-0.9-8.3-2.2c-1-0.5-2.3,0.2-2.2,1.4c0,2,1.8,4.3,4.9,5.2c3.2,0.8,5.8-0.2,6.9-2   C76.5,66.3,75.8,65,74.7,64.9z"/><ellipse transform="matrix(0.2588 -0.9659 0.9659 0.2588 1.3796 119.5178)" cx="78.6" cy="58.9" rx="2.1" ry="2.1"/><ellipse transform="matrix(0.2588 -0.9659 0.9659 0.2588 -4.6881 104.8689)" cx="66" cy="55.5" rx="2.1" ry="2.1"/><path d="M47.4,47.6c-2.6,1.3-5.4,2-8.3,2.2c-1.2,0.1-1.8,1.3-1.2,2.3c1.1,1.7,3.7,2.8,6.9,2c3.2-0.9,4.9-3.1,4.9-5.2   C49.7,47.8,48.5,47.1,47.4,47.6z"/><ellipse transform="matrix(0.9659 -0.2588 0.2588 0.9659 -8.8225 13.7467)" cx="47.8" cy="40.4" rx="2.1" ry="2.1"/><ellipse transform="matrix(0.9659 -0.2588 0.2588 0.9659 -10.1235 10.6058)" cx="35.2" cy="43.8" rx="2.1" ry="2.1"/><path d="M57.1,40C54.9,31.7,46.3,26.7,38,29c-0.3,0.1-0.6,0.2-0.9,0.3c0,0.1,0,0.2,0,0.3c0,0,0,0,0,0c0,0,0,0.1,0,0.1c0,0,0,0,0,0   c0,0,0,0.1,0,0.1c-0.2,0.6-0.6,1.1-1.2,1.3l-3.9,1.2l-0.4,0.1c-0.1,0.1-0.1,0.1-0.2,0.2l-1.5,4.3c-0.2,0.6-0.7,1-1.2,1.1   c0,0-0.1,0-0.1,0c0,0,0,0,0,0c0,0-0.1,0-0.1,0c0,0,0,0,0,0c0,0,0,0-0.1,0c0,0,0,0-0.1,0c0,0,0,0-0.1,0c0,0,0,0-0.1,0c0,0,0,0-0.1,0   c0,0,0,0-0.1,0c0,0,0,0-0.1,0c0,0,0,0-0.1,0c0,0,0,0-0.1,0c0,0,0,0,0,0c0,0-0.1,0-0.1,0c-1.3,3.1-1.6,6.6-0.7,10   c2.2,8.3,10.8,13.3,19.1,11.1C54.4,56.9,59.4,48.4,57.1,40z M45.5,57.2c-7.2,1.9-14.7-2.4-16.6-9.6c-0.7-2.5-0.6-5,0.1-7.4   l11.6-3.1l1.2-5.5l3.8,4.2l5.7-1.5c1.8,1.7,3.1,3.8,3.8,6.3C57,47.8,52.7,55.2,45.5,57.2z"/><path d="M24.2,33.4l3.4,3.5c0.4,0.4,1.1,0.3,1.3-0.3l1.7-4.9l4.9-1.5c0.5-0.2,0.7-0.8,0.3-1.2l-3.4-3.5c-0.4-0.4-1.1-0.3-1.3,0.3   l-1.7,4.9l-4.9,1.5C24,32.3,23.8,33,24.2,33.4z"/><path d="M26.5,37.3l-3.1-3.2C23,33.6,22.8,33,23,32.4c0.2-0.6,0.6-1.1,1.2-1.3l4.5-1.4l0.1-0.2c-0.8-0.5-2-1-3.1-0.8   c-2,0.2-3.9,2.3-5.5,4.7c-1.7,2.5-3.4,4.1-5.2,4.2c-1.8,0.2-3.8-1.4-4.6-1.4c-0.4,0-0.3,0.7,0.2,2c0.5,1.3,1.6,3.2,3,5.1   c1.4,1.8,3.1,3.3,4.7,3.5c1.6,0.2,3.2-1,4.6-3.2C24.3,41.3,25.5,39,26.5,37.3C26.5,37.3,26.5,37.3,26.5,37.3z"/></g><text x="0" y="115" fill="#000000" font-size="5px" font-weight="bold" font-family="'Helvetica Neue', Helvetica, Arial-Unicode, Arial, Sans-serif">Created by Musmellow</text><text x="0" y="120" fill="#000000" font-size="5px" font-weight="bold" font-family="'Helvetica Neue', Helvetica, Arial-Unicode, Arial, Sans-serif">from the Noun Project</text></svg>