<svg xmlns="http://www.w3.org/2000/svg" data-name="Capa 1" viewBox="0 0 20 20" x="0px" y="0px"><defs><style>.cls-1{fill:#1d1d1b;}</style></defs><title>para thenounproject</title><path class="cls-1" d="M18.88,15.89H18.09a1.09,1.09,0,0,0-.89-0.9V7.85h0.1A0.84,0.84,0,0,0,18.14,7V6.91h0.92V6.73a1.48,1.48,0,0,0-1-1.41L10.93,2.95A2.8,2.8,0,0,0,10,2.8H10a2.8,2.8,0,0,0-.89.14L1.95,5.32a1.48,1.48,0,0,0-1,1.41V6.91H1.87V7a0.84,0.84,0,0,0,.84.84H2.8V15a1.09,1.09,0,0,0-.9.9H1.12A1.12,1.12,0,0,0,0,17V17.2H20V17A1.12,1.12,0,0,0,18.88,15.89Zm-2-.93h-1.5V7.85h1.5V15ZM5.06,7.85V6.91H5.15V7a0.83,0.83,0,0,0,.47.75V15H5.05V7.85h0Zm2.44-.37H6A0.47,0.47,0,0,1,5.52,7V6.91H8V7A0.47,0.47,0,0,1,7.49,7.48ZM6,7.85h1.5V15H6V7.85Zm1.87-.09A0.83,0.83,0,0,0,8.33,7V6.91H8.41V7a0.83,0.83,0,0,0,.47.75V15h-1V7.76Zm2.89-.28H9.25A0.47,0.47,0,0,1,8.78,7V6.91h2.45V7A0.47,0.47,0,0,1,10.75,7.48Zm-1.5.37h1.5V15H9.25V7.85Zm1.87-.09A0.83,0.83,0,0,0,11.59,7V6.91h0.09V7a0.83,0.83,0,0,0,.47.75V15h-1V7.76ZM14,7.48H12.52A0.47,0.47,0,0,1,12,7V6.91H14.5V7A0.47,0.47,0,0,1,14,7.48Zm-1.5.37H14V15H12.52V7.85Zm1.88-.1A0.83,0.83,0,0,0,14.86,7V6.91H15V7.85h0V15H14.4V7.75ZM17.77,7a0.47,0.47,0,0,1-.47.47h-2V6.91h2.45V7ZM1.32,6.54a1.11,1.11,0,0,1,.75-0.87L9.19,3.3A2.43,2.43,0,0,1,10,3.17H10a2.43,2.43,0,0,1,.77.12l7.12,2.37a1.11,1.11,0,0,1,.75.87H1.32ZM2.71,7.48A0.47,0.47,0,0,1,2.24,7V6.91H4.69V7.48h-2Zm2,0.37V15H3.17V7.85H4.69ZM3,15.33H17a0.75,0.75,0,0,1,.73.57H2.26A0.75,0.75,0,0,1,3,15.33Zm-2.6,1.5a0.75,0.75,0,0,1,.73-0.57H18.88a0.75,0.75,0,0,1,.73.57H0.39Z"></path></svg>