<svg xmlns="http://www.w3.org/2000/svg" xmlns:xlink="http://www.w3.org/1999/xlink" version="1.1" x="0px" y="0px" viewBox="206 206 100 125" enable-background="new 206 206 100 100" xml:space="preserve"><g><path d="M300.533,238.857c-0.031-0.39-0.255-0.738-0.596-0.928c-0.342-0.19-0.756-0.198-1.104-0.019   c-0.12,0.062-12.195,6.177-26.358,6.18c-0.003,0-0.006-0.001-0.009-0.001c-2.087,0-4.246-0.135-6.438-0.4   c2.694-14.49,1.584-29.037,1.572-29.186c-0.031-0.39-0.255-0.738-0.596-0.928c-0.341-0.19-0.755-0.197-1.104-0.02   c-0.12,0.062-12.221,6.18-26.359,6.183c-0.003,0-0.007-0.001-0.011-0.001c-14.143,0-26.248-6.119-26.368-6.18   c-0.348-0.179-0.762-0.171-1.103,0.019c-0.341,0.19-0.565,0.539-0.596,0.928c-0.007,0.092-0.717,9.303,0.335,20.276   c1.425,14.855,5.226,25.721,11.298,32.295c4.378,4.74,9.907,7.145,16.434,7.145c0.001,0,0.003-0.001,0.005-0.001   c2.666,0,5.187-0.409,7.517-1.214c1.826,7.22,4.485,13.003,7.916,17.201c4.538,5.552,10.423,8.366,17.497,8.366   c0.002,0,0.004,0,0.005,0c6.524-0.002,12.051-2.405,16.428-7.144c6.072-6.575,9.873-17.44,11.299-32.296   C301.251,248.16,300.54,238.949,300.533,238.857z M224.819,265.492c-11.977-12.964-11.459-41.801-11.12-49.101   c3.828,1.707,14.011,5.681,25.823,5.683c0.004,0,0.008,0.001,0.012,0.001c11.819,0,22.009-3.979,25.837-5.686   c0.199,4.218,0.466,15.632-1.657,26.973c-10.04-1.615-17.539-5.414-17.615-5.454c-0.348-0.179-0.762-0.171-1.103,0.019   c-0.341,0.19-0.565,0.539-0.596,0.929c-0.014,0.173-0.308,3.969-0.232,9.644c-1.415-0.402-2.964-0.609-4.633-0.609   c-4.277,0-7.707,1.307-10.191,3.883c-4.351,4.511-4.16,11.242-4.149,11.526c0.018,0.496,0.347,0.927,0.821,1.074   c0.114,0.036,0.231,0.053,0.347,0.053c0.363,0,0.713-0.169,0.938-0.472c4.386-5.896,12.129-5.839,12.212-5.84   c0.016,0.001,0.031,0.001,0.047,0c0.025,0,2.341-0.033,5.169,0.911c0.397,4.167,0.998,8.09,1.79,11.69   c-2.146,0.772-4.491,1.163-6.983,1.163c-0.001,0-0.002,0-0.004,0C233.685,271.881,228.735,269.731,224.819,265.492z    M244.226,250.97c0.06,1.875,0.155,3.732,0.289,5.548c-2.645-0.739-4.716-0.743-4.979-0.739c-0.512-0.006-6.74,0.002-11.688,4.199   c0.392-2.015,1.261-4.592,3.179-6.581c2.027-2.103,4.89-3.168,8.509-3.168C241.272,250.23,242.845,250.48,244.226,250.97z    M287.183,289.843c-3.917,4.241-8.868,6.392-14.717,6.392c-0.001,0-0.002,0.001-0.004,0.001   c-11.674-0.003-19.563-8.434-23.448-25.059c-0.928-3.971-1.611-8.38-2.03-13.103c-0.227-2.568-0.377-5.24-0.448-7.942   c-0.104-4.131,0.002-7.49,0.094-9.391c2.923,1.3,9.572,3.929,17.853,5.103c2.712,0.386,5.395,0.582,7.973,0.582   c0.004,0,0.007,0.001,0.011,0.001c11.817,0,22.006-3.977,25.835-5.684C298.642,248.041,299.164,276.87,287.183,289.843z"/><path d="M285.987,275.195c-0.474-0.146-0.989,0.021-1.285,0.419c-4.222,5.677-11.376,5.84-12.178,5.84h-0.034   c-0.015,0-0.031,0-0.045,0h-0.036c-0.803,0-7.956-0.163-12.177-5.84c-0.221-0.297-0.568-0.472-0.938-0.472   c-0.12,0-1.171,0.039-1.171,1.366c0,1.038,0.14,4.697,1.943,8.18c1.652,3.189,5.145,6.99,12.4,6.99   c4.277,0,7.706-1.307,10.19-3.883c4.352-4.511,4.161-11.242,4.15-11.526C286.789,275.773,286.46,275.343,285.987,275.195z    M280.975,286.173c-2.027,2.103-4.891,3.168-8.509,3.168c-3.612,0-6.471-1.062-8.498-3.156c-1.917-1.981-2.789-4.568-3.184-6.591   c4.806,4.062,10.842,4.198,11.624,4.198h0.058h0.058c0.782,0,6.824-0.137,11.631-4.204   C283.763,281.603,282.895,284.182,280.975,286.173z"/><path d="M265.508,261.123c0,0.646,0.522,1.169,1.168,1.169c0.646,0,1.169-0.523,1.169-1.169c0-4.446-3.617-8.063-8.063-8.063   c-4.446,0-8.063,3.617-8.063,8.063c0,0.646,0.523,1.169,1.169,1.169s1.169-0.523,1.169-1.169c0-3.157,2.568-5.726,5.726-5.726   C262.939,255.397,265.508,257.966,265.508,261.123z"/><path d="M285.149,253.06c-4.445,0-8.062,3.617-8.062,8.063c0,0.646,0.522,1.169,1.168,1.169s1.169-0.523,1.169-1.169   c0-3.157,2.568-5.726,5.725-5.726c3.157,0,5.727,2.568,5.727,5.726c0,0.646,0.523,1.169,1.169,1.169s1.169-0.523,1.169-1.169   C293.213,256.677,289.596,253.06,285.149,253.06z"/><path d="M252.217,237.939c4.446,0,8.063-3.617,8.063-8.063c0-0.645-0.523-1.168-1.169-1.168s-1.169,0.523-1.169,1.168   c0,3.157-2.568,5.726-5.726,5.726c-3.157,0-5.725-2.568-5.725-5.726c0-0.645-0.523-1.168-1.168-1.168   c-0.646,0-1.169,0.523-1.169,1.168C244.154,234.322,247.771,237.939,252.217,237.939z"/><path d="M234.913,229.875c0-0.645-0.523-1.168-1.169-1.168s-1.169,0.523-1.169,1.168c0,3.157-2.568,5.726-5.725,5.726   c-3.157,0-5.726-2.568-5.726-5.726c0-0.645-0.523-1.168-1.169-1.168c-0.645,0-1.168,0.523-1.168,1.168   c0,4.446,3.617,8.063,8.063,8.063C231.296,237.939,234.913,234.322,234.913,229.875z"/></g><text x="206" y="321" fill="#000000" font-size="5px" font-weight="bold" font-family="'Helvetica Neue', Helvetica, Arial-Unicode, Arial, Sans-serif">Created by Iconika</text><text x="206" y="326" fill="#000000" font-size="5px" font-weight="bold" font-family="'Helvetica Neue', Helvetica, Arial-Unicode, Arial, Sans-serif">from the Noun Project</text></svg>