<svg xmlns="http://www.w3.org/2000/svg" xmlns:xlink="http://www.w3.org/1999/xlink" version="1.1" x="0px" y="0px" viewBox="0 0 100 125" enable-background="new 0 0 100 100" xml:space="preserve"><g><path d="M49.95,10.853c-21.586,0-39.147,17.562-39.147,39.148S28.364,89.148,49.95,89.148S89.098,71.587,89.098,50   S71.536,10.853,49.95,10.853z M49.95,84.148C31.121,84.148,15.803,68.83,15.803,50c0-18.829,15.318-34.148,34.147-34.148   S84.098,31.171,84.098,50C84.098,68.83,68.779,84.148,49.95,84.148z"/><path d="M35.143,46.544c2.865,0,5.196-2.331,5.196-5.196c0-2.865-2.331-5.196-5.196-5.196s-5.196,2.331-5.196,5.196   C29.946,44.213,32.277,46.544,35.143,46.544z"/><path d="M64.758,46.544c2.865,0,5.196-2.331,5.196-5.196s-2.331-5.196-5.196-5.196s-5.196,2.331-5.196,5.196   S61.893,46.544,64.758,46.544z"/><path d="M49.95,56.506c-9.442,0-17.855,4.419-20.235,8.514c-0.694,1.193-0.288,2.724,0.905,3.417   c0.396,0.23,0.828,0.339,1.254,0.339c0.862,0,1.7-0.445,2.164-1.244c1.257-2.162,7.649-6.025,15.912-6.025   c8.109,0,14.185,3.875,16.11,6.317c0.855,1.084,2.425,1.271,3.512,0.416c1.084-0.855,1.271-2.427,0.416-3.512   C66.865,60.768,59.264,56.506,49.95,56.506z"/></g><text x="0" y="115" fill="#000000" font-size="5px" font-weight="bold" font-family="'Helvetica Neue', Helvetica, Arial-Unicode, Arial, Sans-serif">Created by mungang kim</text><text x="0" y="120" fill="#000000" font-size="5px" font-weight="bold" font-family="'Helvetica Neue', Helvetica, Arial-Unicode, Arial, Sans-serif">from the Noun Project</text></svg>