<svg xmlns="http://www.w3.org/2000/svg" xmlns:xlink="http://www.w3.org/1999/xlink" version="1.1" x="0px" y="0px" viewBox="0 0 100 125" enable-background="new 0 0 100 100" xml:space="preserve"><g><path fill="#000000" d="M49.283,10.853c-21.586,0-39.147,17.562-39.147,39.148s17.561,39.147,39.147,39.147   c21.586,0,39.147-17.562,39.147-39.148S70.869,10.853,49.283,10.853z M49.283,84.148C30.454,84.148,15.136,68.83,15.136,50   c0-18.829,15.318-34.148,34.147-34.148S83.431,31.171,83.431,50C83.431,68.83,68.112,84.148,49.283,84.148z"/></g><g><path d="M42.202,36.144c-0.878-0.879-2.304-0.879-3.182,0l-3.43,3.43l-3.43-3.43c-0.878-0.879-2.304-0.879-3.182,0   c-0.879,0.878-0.879,2.303,0,3.182l3.43,3.43l-3.43,3.43c-0.879,0.878-0.879,2.303,0,3.182c0.439,0.439,1.015,0.659,1.591,0.659   s1.152-0.22,1.591-0.659l3.43-3.43l3.43,3.43c0.439,0.439,1.015,0.659,1.591,0.659s1.152-0.22,1.591-0.659   c0.879-0.878,0.879-2.303,0-3.182l-3.43-3.43l3.43-3.43C43.081,38.447,43.081,37.022,42.202,36.144z"/><path d="M65.711,42.755l3.43-3.43c0.878-0.878,0.878-2.303-0.001-3.182c-0.879-0.879-2.304-0.879-3.183,0l-3.429,3.43l-3.429-3.43   c-0.879-0.879-2.304-0.879-3.183,0c-0.879,0.878-0.879,2.303-0.001,3.182l3.43,3.43l-3.43,3.43   c-0.878,0.878-0.878,2.303,0.001,3.182c0.439,0.439,1.015,0.659,1.591,0.659s1.152-0.22,1.592-0.659l3.429-3.43l3.429,3.43   c0.439,0.439,1.016,0.659,1.592,0.659s1.151-0.22,1.591-0.659c0.879-0.878,0.879-2.303,0.001-3.182L65.711,42.755z"/></g><path d="M66.854,57.732c-3.637,0-6.596,2.944-6.627,6.573c0,0.01-0.003,0.019-0.003,0.028c0,1.175-0.956,2.13-2.13,2.13  c-1.176,0-2.131-0.955-2.131-2.13c0-0.01-0.003-0.019-0.003-0.028c-0.031-3.629-2.991-6.573-6.627-6.573  c-3.637,0-6.596,2.944-6.627,6.573c0,0.01-0.003,0.019-0.003,0.028c0,1.175-0.956,2.13-2.13,2.13s-2.13-0.955-2.13-2.13  c0-0.01-0.003-0.019-0.003-0.028c-0.031-3.629-2.991-6.573-6.627-6.573c-3.656,0-6.63,2.975-6.63,6.63c0,1.242,1.007,2.25,2.25,2.25  s2.25-1.008,2.25-2.25c0-1.175,0.956-2.13,2.13-2.13s2.13,0.955,2.13,2.13c0,0.01,0.003,0.019,0.003,0.028  c0.031,3.629,2.991,6.573,6.627,6.573s6.597-2.944,6.627-6.573c0-0.01,0.003-0.019,0.003-0.028c0-1.175,0.956-2.13,2.13-2.13  c1.175,0,2.13,0.955,2.13,2.13c0,0.01,0.003,0.019,0.003,0.028c0.031,3.629,2.991,6.573,6.628,6.573s6.596-2.944,6.627-6.573  c0-0.01,0.003-0.019,0.003-0.028c0-1.175,0.956-2.13,2.13-2.13c1.176,0,2.131,0.955,2.131,2.13c0,1.242,1.008,2.25,2.25,2.25  s2.25-1.008,2.25-2.25C73.484,60.707,70.51,57.732,66.854,57.732z"/><text x="0" y="115" fill="#000000" font-size="5px" font-weight="bold" font-family="'Helvetica Neue', Helvetica, Arial-Unicode, Arial, Sans-serif">Created by mungang kim</text><text x="0" y="120" fill="#000000" font-size="5px" font-weight="bold" font-family="'Helvetica Neue', Helvetica, Arial-Unicode, Arial, Sans-serif">from the Noun Project</text></svg>