<svg xmlns="http://www.w3.org/2000/svg" xmlns:xlink="http://www.w3.org/1999/xlink" version="1.1" x="0px" y="0px" viewBox="0 0 100 125" enable-background="new 0 0 100 100" xml:space="preserve"><g><path d="M49.467,10.853c-21.586,0-39.147,17.562-39.147,39.148s17.562,39.148,39.147,39.148S88.614,71.587,88.614,50   S71.053,10.853,49.467,10.853z M49.467,84.148C30.638,84.148,15.319,68.83,15.319,50c0-18.829,15.318-34.148,34.147-34.148   S83.614,31.171,83.614,50C83.614,68.83,68.296,84.148,49.467,84.148z"/><path d="M35.268,49.917c3.345,0,7.616-5.594,7.616-9.976c0-3.042-1.687-5.166-4.103-5.166c-1.564,0-2.79,0.785-3.477,2.165   c-0.678-1.436-1.92-2.254-3.52-2.254c-2.415,0-4.102,2.124-4.102,5.165C27.683,44.272,31.936,49.917,35.268,49.917z"/><path d="M67.147,34.776c-1.564,0-2.79,0.785-3.477,2.165c-0.678-1.436-1.92-2.254-3.52-2.254c-2.415,0-4.102,2.124-4.102,5.165   c0,4.421,4.253,10.066,7.585,10.066c3.346,0,7.616-5.594,7.616-9.976C71.251,36.9,69.563,34.776,67.147,34.776z"/><path d="M67.54,53.817c-1.381,0-2.5,1.119-2.5,2.5c0,8.309-6.695,14.574-15.573,14.574c-8.878,0-15.574-6.266-15.574-14.574   c0-1.381-1.119-2.5-2.5-2.5s-2.5,1.119-2.5,2.5c0,11.159,8.845,19.574,20.574,19.574c11.728,0,20.573-8.415,20.573-19.574   C70.04,54.937,68.921,53.817,67.54,53.817z"/></g><text x="0" y="115" fill="#000000" font-size="5px" font-weight="bold" font-family="'Helvetica Neue', Helvetica, Arial-Unicode, Arial, Sans-serif">Created by mungang kim</text><text x="0" y="120" fill="#000000" font-size="5px" font-weight="bold" font-family="'Helvetica Neue', Helvetica, Arial-Unicode, Arial, Sans-serif">from the Noun Project</text></svg>