<svg xmlns="http://www.w3.org/2000/svg" xmlns:xlink="http://www.w3.org/1999/xlink" version="1.1" x="0px" y="0px" viewBox="0 0 100 125" enable-background="new 0 0 100 100" xml:space="preserve"><g><path d="M50.95,10.853c-21.586,0-39.147,17.562-39.147,39.148S29.364,89.148,50.95,89.148S90.098,71.587,90.098,50   S72.536,10.853,50.95,10.853z M50.95,84.148C32.121,84.148,16.803,68.83,16.803,50c0-18.829,15.318-34.148,34.147-34.148   S85.098,31.171,85.098,50C85.098,68.83,69.779,84.148,50.95,84.148z"/><path d="M36.143,46.544c2.865,0,5.196-2.331,5.196-5.196c0-2.865-2.331-5.196-5.196-5.196s-5.196,2.331-5.196,5.196   C30.946,44.213,33.277,46.544,36.143,46.544z"/><path d="M65.758,46.544c2.865,0,5.196-2.331,5.196-5.196s-2.331-5.196-5.196-5.196s-5.196,2.331-5.196,5.196   S62.893,46.544,65.758,46.544z"/><path d="M69.023,52.34c-1.381,0-2.5,1.119-2.5,2.5c0,8.309-6.695,14.574-15.573,14.574c-8.878,0-15.574-6.266-15.574-14.574   c0-1.381-1.119-2.5-2.5-2.5s-2.5,1.119-2.5,2.5c0,11.159,8.845,19.574,20.574,19.574c11.729,0,20.573-8.415,20.573-19.574   C71.523,53.459,70.404,52.34,69.023,52.34z"/></g><text x="0" y="115" fill="#000000" font-size="5px" font-weight="bold" font-family="'Helvetica Neue', Helvetica, Arial-Unicode, Arial, Sans-serif">Created by mungang kim</text><text x="0" y="120" fill="#000000" font-size="5px" font-weight="bold" font-family="'Helvetica Neue', Helvetica, Arial-Unicode, Arial, Sans-serif">from the Noun Project</text></svg>